<?xml version="1.0" standalone="no"?>
<!DOCTYPE svg PUBLIC "-//W3C//DTD SVG 20010904//EN"
 "http://www.w3.org/TR/2001/REC-SVG-20010904/DTD/svg10.dtd">
<svg version="1.0" xmlns="http://www.w3.org/2000/svg"
 width="96.000000pt" height="96.000000pt" viewBox="0 0 96.000000 96.000000"
 preserveAspectRatio="xMidYMid meet">
<metadata>
Created by potrace 1.14, written by Peter Selinger 2001-2017
</metadata>
<g transform="translate(0.000000,96.000000) scale(0.100000,-0.100000)"
fill="#000000" stroke="none">
<path d="M102 933 c-18 -9 -45 -32 -60 -51 l-27 -35 0 -367 0 -367 27 -35 c51
-67 56 -68 440 -68 337 0 344 1 383 23 22 12 50 40 62 62 23 40 23 42 21 396
l-3 356 -27 35 c-51 67 -56 68 -440 68 -297 0 -347 -3 -376 -17z m727 -41 c19
-9 44 -30 55 -45 20 -27 21 -40 21 -367 0 -465 35 -430 -425 -430 -347 0 -359
2 -404 63 -20 27 -21 40 -21 367 0 465 -35 430 425 430 280 0 319 -2 349 -18z"/>
<path d="M140 550 c-29 -29 -29 -129 1 -156 26 -23 127 -26 153 -5 24 20 23
142 -2 164 -28 25 -126 23 -152 -3z m130 -80 l0 -50 -49 0 c-53 0 -61 8 -61
59 0 37 6 41 62 41 l48 0 0 -50z"/>
<path d="M400 550 c-28 -28 -28 -118 -1 -151 16 -21 28 -24 81 -24 79 0 100
21 100 101 0 75 -20 94 -100 94 -47 0 -64 -4 -80 -20z m130 -80 l0 -50 -50 0
-50 0 0 50 0 50 50 0 50 0 0 -50z"/>
<path d="M667 552 c-24 -26 -24 -144 -1 -163 26 -21 127 -18 153 5 30 27 30
127 1 156 -28 28 -129 29 -153 2z m131 -61 c2 -12 1 -34 -2 -47 -6 -21 -12
-24 -56 -24 l-50 0 0 51 0 50 53 -3 c46 -3 52 -6 55 -27z"/>
<path d="M140 290 c-16 -16 -20 -33 -20 -80 0 -80 19 -100 93 -100 81 0 97 16
97 100 0 60 -3 71 -22 84 -34 24 -123 21 -148 -4z m130 -81 l0 -50 -52 3 c-52
3 -53 4 -56 36 -5 54 2 62 58 62 l50 0 0 -51z"/>
<path d="M405 285 c-20 -19 -25 -34 -25 -75 0 -71 29 -100 100 -100 71 0 100
29 100 100 0 41 -5 56 -25 75 -19 20 -34 25 -75 25 -41 0 -56 -5 -75 -25z
m125 -75 l0 -50 -50 0 -50 0 0 50 0 50 50 0 50 0 0 -50z"/>
<path d="M672 294 c-19 -13 -22 -24 -22 -84 0 -84 16 -100 97 -100 74 0 93 20
93 100 0 80 -19 100 -93 100 -31 0 -61 -6 -75 -16z m123 -84 l0 -45 -52 -3
-53 -3 0 51 0 51 53 -3 52 -3 0 -45z"/>
</g>
</svg>
